<?xml version="1.0" encoding="UTF-8"?>
<svg width="64px" height="64px" viewBox="0 0 64 64" version="1.1" xmlns="http://www.w3.org/2000/svg" xmlns:xlink="http://www.w3.org/1999/xlink">
    <!-- Generator: Sketch 51 (57462) - http://www.bohemiancoding.com/sketch -->
    <title>Group</title>
    <desc>Created with Sketch.</desc>
    <defs>
        <circle id="path-1" cx="32" cy="32" r="32"></circle>
    </defs>
    <g id="Page-1" stroke="none" stroke-width="1" fill="none" fill-rule="evenodd">
        <g id="Group">
            <mask id="mask-2" fill="white">
                <use xlink:href="#path-1"></use>
            </mask>
            <use id="Oval" fill="#A168AB" xlink:href="#path-1"></use>
            <path d="M44.5489276,41.6361361 C44.5715558,41.7142587 44.5948678,41.7921376 44.6188636,41.8697727 C45.2342266,43.8606938 46.2315349,45.4721075 47.6107886,46.7040136 L47.6106069,46.7042172 C47.6722804,46.759302 47.6776215,46.8539534 47.6225367,46.9156269 C47.5944855,46.9470333 47.5545058,46.9651755 47.5123983,46.9656062 C44.643287,46.9949528 42.366629,46.6975525 40.6824244,46.0734051 C40.4780142,45.997653 40.2795028,45.9160397 40.0868904,45.8285651 C39.3501604,46.076523 38.5612286,46.2109091 37.7409091,46.2109091 L23.35,46.2109091 C19.2907071,46.2109091 16,42.920202 16,38.8609091 L16,24.47 C16,20.4107071 19.2907071,17.12 23.35,17.12 L37.7409091,17.12 C41.800202,17.12 45.0909091,20.4107071 45.0909091,24.47 L45.0909091,38.8609091 C45.0909091,39.8428602 44.8983481,40.7798364 44.5489276,41.6361361 Z M25.09,20.96 C22.1905051,20.96 19.84,23.3105051 19.84,26.21 L19.84,37.0809091 C19.84,39.980404 22.1905051,42.3309091 25.09,42.3309091 L35.9609091,42.3309091 C38.860404,42.3309091 41.2109091,39.980404 41.2109091,37.0809091 L41.2109091,26.21 C41.2109091,23.3105051 38.860404,20.96 35.9609091,20.96 L25.09,20.96 Z M36,33.6 C34.9396133,33.6 34.08,32.7403867 34.08,31.68 C34.08,30.6196133 34.9396133,29.76 36,29.76 C37.0603867,29.76 37.92,30.6196133 37.92,31.68 C37.92,32.7403867 37.0603867,33.6 36,33.6 Z M25.12,33.6 C24.0596133,33.6 23.2,32.7403867 23.2,31.68 C23.2,30.6196133 24.0596133,29.76 25.12,29.76 C26.1803867,29.76 27.04,30.6196133 27.04,31.68 C27.04,32.7403867 26.1803867,33.6 25.12,33.6 Z M30.56,33.6 C29.4996133,33.6 28.64,32.7403867 28.64,31.68 C28.64,30.6196133 29.4996133,29.76 30.56,29.76 C31.6203867,29.76 32.48,30.6196133 32.48,31.68 C32.48,32.7403867 31.6203867,33.6 30.56,33.6 Z" id="Combined-Shape" fill="#FFFFFF" mask="url(#mask-2)"></path>
        </g>
    </g>
</svg>