<svg width="64" height="64" viewBox="0 0 64 64" fill="none" xmlns="http://www.w3.org/2000/svg">
<path d="M32 64C49.6731 64 64 49.6731 64 32C64 14.3269 49.6731 0 32 0C14.3269 0 0 14.3269 0 32C0 49.6731 14.3269 64 32 64Z" fill="#A168AB"/>
<path fill-rule="evenodd" clip-rule="evenodd" d="M36.599 39H27.401C26.981 39 26.575 39.1505 26.2565 39.4253L20.0422 44.796C17.5555 46.945 13.7457 44.7978 14.304 41.5603C15.3155 35.6925 16.3427 29.7303 17.3665 23.8065C17.9457 20.4518 20.856 18 24.2632 18H39.7385C43.144 18 46.056 20.4518 46.6352 23.8083C47.659 29.732 48.6862 35.6942 49.6977 41.562C50.256 44.8012 46.4445 46.9467 43.9595 44.7977L37.7453 39.427C37.425 39.1505 37.019 39 36.599 39Z" fill="white"/>
<path fill-rule="evenodd" clip-rule="evenodd" d="M26.5 25C26.5 24.1716 25.8284 23.5 25 23.5C24.1716 23.5 23.5 24.1716 23.5 25V27H21.5C20.6716 27 20 27.6716 20 28.5C20 29.3284 20.6716 30 21.5 30H23.5V32C23.5 32.8284 24.1716 33.5 25 33.5C25.8284 33.5 26.5 32.8284 26.5 32V30H28.5C29.3284 30 30 29.3284 30 28.5C30 27.6716 29.3284 27 28.5 27H26.5V25Z" fill="#A168AB"/>
<path d="M38.9983 24.5625C38.7568 24.5625 38.5608 24.7585 38.5625 25C38.5625 25.2415 38.7585 25.4375 39 25.4375C39.2415 25.4375 39.4375 25.2415 39.4375 25C39.4375 24.7585 39.2415 24.5625 38.9983 24.5625" stroke="#A168AB" stroke-width="3" stroke-linecap="round" stroke-linejoin="round"/>
<path d="M42.4983 28.0625C42.2568 28.0625 42.0608 28.2585 42.0625 28.5C42.0625 28.7415 42.2585 28.9375 42.5 28.9375C42.7415 28.9375 42.9375 28.7415 42.9375 28.5C42.9375 28.2585 42.7415 28.0625 42.4983 28.0625" stroke="#A168AB" stroke-width="3" stroke-linecap="round" stroke-linejoin="round"/>
<path d="M38.9983 31.5625C38.7568 31.5625 38.5608 31.7585 38.5625 32C38.5625 32.2415 38.7585 32.4375 39 32.4375C39.2415 32.4375 39.4375 32.2415 39.4375 32C39.4375 31.7585 39.2415 31.5625 38.9983 31.5625" stroke="#A168AB" stroke-width="3" stroke-linecap="round" stroke-linejoin="round"/>
<path d="M35.4983 28.0625C35.2568 28.0625 35.0608 28.2585 35.0625 28.5C35.0625 28.7415 35.2585 28.9375 35.5 28.9375C35.7415 28.9375 35.9375 28.7415 35.9375 28.5C35.9375 28.2585 35.7415 28.0625 35.4983 28.0625" stroke="#A168AB" stroke-width="3" stroke-linecap="round" stroke-linejoin="round"/>
</svg>
